Coordinates
version=1
nRows=6
nColumns=36
inDegrees=yes

Units are S.I. units (second, meters, Newtons, ...)
If the header above contains a line with 'inDegrees', this indicates whether rotational values are in degrees (yes) or radians (no).

endheader
time	pelvis_tilt	pelvis_list	pelvis_rotation	pelvis_tx	pelvis_ty	pelvis_tz	hip_flexion_r	hip_adduction_r	hip_rotation_r	knee_angle_r	knee_angle_r_beta	ankle_angle_r	subtalar_angle_r	mtp_angle_r	hip_flexion_l	hip_adduction_l	hip_rotation_l	knee_angle_l	knee_angle_l_beta	ankle_angle_l	subtalar_angle_l	mtp_angle_l	lumbar_extension	lumbar_bending	lumbar_rotation	arm_flex_r	arm_add_r	arm_rot_r	elbow_flex_r	pro_sup_r	arm_flex_l	arm_add_l	arm_rot_l	elbow_flex_l	pro_sup_l
      4.00000000	     -9.30929773	      5.42220403	      4.11750900	      0.92397668	      0.73022503	     -0.01530789	     58.11950926	    -22.57394180	      6.88987302	     82.49948355	      1.43988762	     30.52613132	    -17.51176880	     -7.49999987	     51.16567880	     -5.51639893	      1.16622238	     72.99350094	      1.27397692	      8.75205129	    -12.86654621	     -7.49999987	    -15.90422418	     -4.54600036	     15.04232109	     -5.78665248	    -23.15459223	     23.74985443	     26.91728414	     58.92521188	     -1.68383148	     -6.70207858	     16.01706646	     20.57235861	     61.08872066
      4.01666670	     -9.69253824	      6.21223204	      4.07596617	      0.92378727	      0.71755467	     -0.02097932	     60.66470092	    -23.67756783	      8.43901923	     84.20849281	      1.46971546	     31.42494569	    -15.88828338	     -7.49999987	     52.90297862	     -4.84746918	      0.71344661	     75.04159329	      1.30972288	      9.80931753	    -12.28958998	     -7.49999987	    -19.13182160	     -4.96063450	     12.41251172	      2.14160515	    -23.71877016	     22.51269671	     28.94133174	     59.76510678	      3.44969044	     -3.71006619	     16.53329591	     22.52714780	     61.19024300
      4.03333330	    -10.59567734	      6.97964640	      4.15691522	      0.92970966	      0.70514308	     -0.02592268	     63.47314464	    -25.28895227	      9.87073329	     86.53281083	      1.51028246	     31.94999335	    -13.20258456	     -7.49999987	     54.41967575	     -4.13068349	     -0.02482886	     76.62293795	      1.33732255	     11.32788024	    -12.19584955	     -7.49999987	    -20.39228224	     -5.05197361	      9.34488466	     10.09063063	    -23.23657484	     23.58686005	     29.18869455	     69.02282970	      7.76685280	     -1.45671495	     14.82128956	     25.06949129	     63.15861462
      4.05000000	    -12.39306605	      7.66965770	      4.92112102	      0.94269708	      0.68719617	     -0.02918781	     66.19218234	    -27.17793299	     11.12645868	     88.59245291	      1.54623000	     33.36628693	    -12.33403128	     -7.49999987	     56.42052325	     -3.01051754	     -0.49862504	     78.10602886	      1.36320737	     11.66440766	    -12.44922776	     -7.49999987	    -18.76675391	     -4.94716019	      7.27715712	     14.56124578	    -22.04091523	     22.86069754	     30.93917685	     69.45102180	     12.14757700	      0.67203430	     15.78115179	     27.03627274	     63.88103333
      4.06666670	    -14.17659800	      8.80378354	      6.09726971	      0.94308467	      0.69448067	     -0.04120396	     68.07035441	    -30.08531327	     12.02409072	     88.69877607	      1.54808568	     33.28424827	    -10.00488382	     -7.49999987	     56.99627381	     -0.15165408	     -1.02340703	     77.21360323	      1.34763160	     10.83917237	    -15.36132690	     -7.49999987	    -16.97058419	     -4.64539147	      6.35717239	     18.55833596	    -21.20131775	     20.15262559	     32.05634078	     80.20419256	     15.58039978	      4.39208928	     18.53696935	     30.15545806	     76.04488309
      4.08333330	    -14.55509328	      9.19189793	      6.80778059	      0.91622017	      0.70106690	     -0.03362890	     68.53374853	    -30.60833782	     12.15052299	     87.42644472	      1.52587931	     33.42003885	     -9.35154481	     -7.49999987	     57.19568399	      1.67319144	     -0.28025529	     75.35313838	      1.31516037	      8.89173519	    -18.16619526	     -7.49999987	    -18.11365287	     -4.23601805	      5.18535813	     25.94581866	    -20.03342739	     20.21870289	     36.37765799	     80.01225919	     21.03819856	      8.22377939	     21.30628722	     33.95130807	     76.76783527
